<svg width="22" height="22" viewBox="0 0 22 22" fill="none" xmlns="http://www.w3.org/2000/svg">
<path d="M8.34793 4.99367C8.8961 3.38951 11.1126 3.34092 11.7625 4.84792L11.8175 4.99459L12.5573 7.15792C12.7268 7.65406 13.0008 8.10806 13.3607 8.48931C13.7206 8.87057 14.1581 9.1702 14.6436 9.36801L14.8425 9.44226L17.0059 10.1811C18.61 10.7293 18.6586 12.9458 17.1525 13.5957L17.0059 13.6507L14.8425 14.3904C14.3462 14.5598 13.892 14.8337 13.5106 15.1937C13.1292 15.5536 12.8294 15.9911 12.6315 16.4768L12.5573 16.6748L11.8184 18.839C11.2703 20.4432 9.05377 20.4918 8.40477 18.9857L8.34793 18.839L7.6091 16.6757C7.43968 16.1794 7.16578 15.7252 6.80586 15.3438C6.44595 14.9624 6.00841 14.6626 5.52277 14.4647L5.32477 14.3904L3.16143 13.6516C1.55635 13.1034 1.50777 10.8869 3.01477 10.2379L3.16143 10.1811L5.32477 9.44226C5.8209 9.27273 6.2749 8.99877 6.65616 8.63886C7.03741 8.27896 7.33705 7.84147 7.53485 7.35592L7.6091 7.15792L8.34793 4.99367ZM17.4165 1.83301C17.588 1.83301 17.7561 1.88111 17.9016 1.97186C18.0471 2.0626 18.1642 2.19234 18.2397 2.34634L18.2837 2.45359L18.6045 3.39409L19.5459 3.71492C19.7178 3.77331 19.8685 3.88141 19.9788 4.02551C20.0892 4.16961 20.1543 4.34322 20.1659 4.52436C20.1774 4.7055 20.135 4.88599 20.0439 5.04298C19.9528 5.19996 19.8171 5.32637 19.6541 5.40617L19.5459 5.45017L18.6054 5.77101L18.2846 6.71242C18.2261 6.88423 18.1179 7.03481 17.9738 7.14508C17.8296 7.25535 17.656 7.32035 17.4749 7.33184C17.2937 7.34332 17.1133 7.30078 16.9563 7.20961C16.7994 7.11843 16.6731 6.98272 16.5934 6.81967L16.5494 6.71242L16.2285 5.77192L15.2871 5.45109C15.1152 5.3927 14.9646 5.28461 14.8542 5.14051C14.7439 4.99641 14.6788 4.82279 14.6672 4.64166C14.6556 4.46052 14.698 4.28002 14.7892 4.12304C14.8803 3.96605 15.0159 3.83965 15.1789 3.75984L15.2871 3.71584L16.2276 3.39501L16.5484 2.45359C16.6102 2.27248 16.7272 2.11526 16.8829 2.00397C17.0385 1.89267 17.2252 1.83289 17.4165 1.83301Z" fill="black"/>
</svg>
