<svg width="23" height="23" viewBox="0 0 23 23" fill="none" xmlns="http://www.w3.org/2000/svg">
<path d="M11.4997 11.4997C10.4455 11.4997 9.54308 11.1243 8.79238 10.3736C8.04169 9.62294 7.66634 8.72051 7.66634 7.66634C7.66634 6.61217 8.04169 5.70974 8.79238 4.95905C9.54308 4.20836 10.4455 3.83301 11.4997 3.83301C12.5538 3.83301 13.4563 4.20836 14.207 4.95905C14.9577 5.70974 15.333 6.61217 15.333 7.66634C15.333 8.72051 14.9577 9.62294 14.207 10.3736C13.4563 11.1243 12.5538 11.4997 11.4997 11.4997ZM3.83301 17.2497V16.483C3.83301 15.94 3.97292 15.441 4.25276 14.9861C4.53259 14.5312 4.90379 14.1836 5.36634 13.9434C6.35662 13.4483 7.36287 13.0771 8.38509 12.8298C9.40731 12.5826 10.4455 12.4586 11.4997 12.458C12.5538 12.4574 13.592 12.5813 14.6143 12.8298C15.6365 13.0784 16.6427 13.4496 17.633 13.9434C18.0962 14.183 18.4677 14.5306 18.7475 14.9861C19.0274 15.4416 19.167 15.9406 19.1663 16.483V17.2497C19.1663 17.7768 18.9788 18.2281 18.6038 18.6038C18.2288 18.9795 17.7774 19.167 17.2497 19.1663H5.74967C5.22259 19.1663 4.77154 18.9788 4.39651 18.6038C4.02148 18.2288 3.83365 17.7774 3.83301 17.2497Z" fill="white"/>
</svg>
