<svg width="33" height="33" viewBox="0 0 33 33" fill="none" xmlns="http://www.w3.org/2000/svg">
<path d="M12.5219 7.491C13.3442 5.08475 16.6689 5.01188 17.6438 7.27238L17.7263 7.49238L18.8359 10.7374C19.0902 11.4816 19.5011 12.1626 20.041 12.7345C20.5809 13.3063 21.2371 13.7558 21.9654 14.0525L22.2638 14.1639L25.5088 15.2721C27.915 16.0944 27.9879 19.4191 25.7288 20.394L25.5088 20.4765L22.2638 21.5861C21.5193 21.8403 20.8381 22.2511 20.2659 22.791C19.6938 23.3308 19.2441 23.9872 18.9473 24.7156L18.8359 25.0126L17.7277 28.259C16.9054 30.6653 13.5807 30.7381 12.6072 28.479L12.5219 28.259L11.4137 25.014C11.1595 24.2696 10.7487 23.5883 10.2088 23.0161C9.66893 22.444 9.01262 21.9944 8.28415 21.6975L7.98715 21.5861L4.74215 20.4779C2.33453 19.6556 2.26165 16.3309 4.52215 15.3574L4.74215 15.2721L7.98715 14.1639C8.73135 13.9096 9.41235 13.4986 9.98423 12.9588C10.5561 12.4189 11.0056 11.7627 11.3023 11.0344L11.4137 10.7374L12.5219 7.491ZM26.1248 2.75C26.382 2.75 26.6341 2.82216 26.8524 2.95827C27.0706 3.09439 27.2463 3.289 27.3595 3.52L27.4255 3.68088L27.9068 5.09163L29.3189 5.57288C29.5767 5.66046 29.8027 5.8226 29.9682 6.03875C30.1338 6.2549 30.2314 6.51533 30.2488 6.78703C30.2662 7.05873 30.2025 7.32948 30.0658 7.56496C29.9292 7.80044 29.7257 7.99004 29.4812 8.10975L29.3189 8.17575L27.9082 8.657L27.4269 10.0691C27.3392 10.3268 27.1769 10.5527 26.9607 10.7181C26.7444 10.8835 26.484 10.981 26.2123 10.9982C25.9406 11.0155 25.6699 10.9517 25.4345 10.8149C25.1991 10.6781 25.0096 10.4746 24.89 10.23L24.824 10.0691L24.3428 8.65837L22.9307 8.17713C22.6729 8.08954 22.4469 7.9274 22.2813 7.71125C22.1158 7.4951 22.0181 7.23468 22.0008 6.96297C21.9834 6.69127 22.0471 6.42052 22.1837 6.18504C22.3204 5.94957 22.5239 5.75996 22.7684 5.64025L22.9307 5.57425L24.3414 5.093L24.8227 3.68088C24.9154 3.40921 25.0908 3.17337 25.3243 3.00644C25.5578 2.8395 25.8377 2.74983 26.1248 2.75Z" fill="white"/>
</svg>
